<svg preserveAspectRatio="none" width="100%" height="100%" overflow="visible" style="display: block;" viewBox="0 0 26 25.9611" fill="none" xmlns="http://www.w3.org/2000/svg">
<g id="Group">
<path id="Vector" d="M1.40252 11.5864C1.33684 8.6425 2.61204 6.44715 5.00481 4.87026C6.32952 3.99757 7.6795 3.16523 9.00724 2.29759C10.3784 1.4027 11.8517 1.19588 13.4755 1.28264C16.2947 1.43196 18.7097 2.49836 20.8953 4.19733C22.3049 5.29298 23.28 6.7024 23.7014 8.48511C23.9358 9.47887 24.246 10.4545 24.5198 11.4391C25.0523 13.355 24.6138 15.1609 23.8863 16.9245C23.5942 17.6327 23.2477 18.3188 22.9213 19.0119C21.3864 22.2666 18.6662 23.8556 15.2862 24.3136C10.8099 24.9209 7.43597 22.7851 4.60062 19.5456C3.06068 17.7861 2.08054 15.7178 1.57733 13.4297C1.44597 12.8314 1.45506 12.2019 1.4005 11.5864M12.6985 25.8925C15.9774 26.2668 18.8804 25.0763 21.4834 23.11C21.8653 22.8214 22.1927 22.4411 22.4908 22.0587C23.9903 20.1338 24.8886 17.9031 25.6172 15.5958C26.1467 13.92 26.1062 12.2321 25.6232 10.5483C25.3706 9.66753 25.0938 8.79282 24.8876 7.90097C24.5128 6.27766 23.5872 5.00444 22.4736 3.84018C21.16 2.46708 19.3857 1.87688 17.7821 0.985022C16.2674 0.142598 14.6385 0.033638 13.0056 0.00135347C11.0463 -0.0359755 9.25076 0.70455 7.49458 1.51671C5.8152 2.29456 4.51069 3.57283 3.13243 4.76937C0.956906 6.65902 0.026272 9.06018 0 11.426C0.0606276 14.7493 0.693178 16.758 2.57263 19.598C4.98965 23.2512 8.39591 25.3992 12.6995 25.8915" fill="var(--fill-0, white)"/>
<path id="Vector_2" d="M5.43181 8.82823C6.31495 6.88611 7.82256 5.52714 9.49891 4.36792C10.1022 3.95125 10.9479 3.77167 11.6997 3.72123C12.8476 3.64455 14.0662 3.55879 15.1514 3.85944C17.3946 4.48092 19.363 5.73699 20.6554 7.72148C21.491 9.00478 22.0236 10.5141 21.9427 12.1485C21.773 13.567 21.6325 14.9905 21.4274 16.403C21.1546 18.2836 20.0218 19.6405 18.4546 20.4829C17.039 21.2436 15.4829 21.7965 13.9298 22.2213C12.4585 22.6228 11.0176 22.0699 9.89703 21.1377C8.43995 19.925 6.97579 18.6306 5.8754 17.1052C5.0539 15.9671 4.6386 14.4427 4.34759 13.0252C4.04142 11.5341 4.82048 10.1751 5.43181 8.82823ZM8.70166 21.6321C10.1133 22.8619 11.7775 23.6196 13.6529 23.3492C16.849 22.8891 19.5489 21.4464 21.4001 18.675C21.7295 18.1817 21.9063 17.5471 22.0195 16.9508C22.2661 15.6534 22.4591 14.3438 22.6137 13.0323C22.8956 10.6422 22.4257 8.35708 20.91 6.52695C18.88 4.07535 16.3559 2.38444 12.9112 2.71435C11.4744 2.70225 9.98797 2.83744 8.831 3.85743C7.24761 5.25373 5.68543 6.65609 4.55372 8.52758C2.96629 11.1537 2.96225 13.7657 4.17379 16.4635C4.50118 17.1919 4.89526 17.9375 5.42878 18.5126C6.45237 19.6163 7.5659 20.6433 8.70065 21.6321" fill="var(--fill-0, white)"/>
<path id="Vector_3" d="M7.93855 8.12996C8.37911 7.568 8.8712 7.15537 9.57044 6.89306C12.2593 5.88518 14.8713 6.25039 17.4035 7.33192C19.5295 8.23993 20.2328 9.70786 19.8832 12.3643C19.6841 13.8766 19.286 15.3647 18.9404 16.8548C18.7484 17.6801 18.2382 18.3076 17.5288 18.7516C16.8296 19.1904 16.1182 19.6091 15.4069 20.0268C14.3964 20.618 13.3445 20.5101 12.3644 20.0308C10.8598 19.2953 9.5856 18.2481 8.67214 16.8004C8.3205 16.2424 7.98503 15.6724 7.61722 15.1246C7.01701 14.2307 6.60979 13.2924 6.84826 12.2745C6.7846 10.7127 6.99983 9.32549 7.93754 8.12996M7.34136 17.0788C8.41346 19.0401 10.0544 20.3335 12.0925 21.0962C13.3283 21.5593 14.644 21.8771 15.8575 21.0367C16.8781 20.3295 17.84 19.5304 18.806 18.7465C18.991 18.5962 19.1122 18.3369 19.2092 18.1049C20.0964 15.9842 20.7098 13.7989 20.6572 11.767C20.8553 8.24901 19.1344 6.8295 16.9013 6.06072C15.1158 5.4453 13.2859 5.20417 11.4155 5.3777C10.69 5.4453 9.89176 5.49776 9.27437 5.83372C7.42927 6.83959 6.14599 8.30954 5.90651 10.5533C5.72564 12.2442 5.50031 13.9139 6.40972 15.4807C6.71892 16.0134 7.04429 16.538 7.34035 17.0788" fill="var(--fill-0, white)"/>
<path id="Vector_4" d="M10.0294 10.7965C10.1628 9.57371 10.3417 8.82545 10.566 8.55171C11.3562 8.55171 11.9614 8.61325 12.5495 8.5396C14.2683 8.32571 15.7648 8.88464 17.1259 9.8562C17.3977 10.0509 17.6362 10.5231 17.622 10.857C17.5745 12.0263 17.4523 13.1976 17.2795 14.3558C17.0218 16.0851 15.8426 17.0042 14.3118 17.5107C13.565 17.7578 12.9001 17.4158 12.3313 16.9225C10.4639 15.3052 9.76266 13.235 10.0294 10.7945M14.337 18.7829C16.1548 18.3531 18.1333 16.9729 18.39 14.8119C18.5436 13.5205 18.6234 12.221 18.7214 10.9236C18.7931 9.97121 18.3405 9.34066 17.5654 8.81503C15.7547 7.58822 13.7914 7.19071 11.6532 7.45302C10.568 7.5862 9.68284 8.23491 9.4181 9.32048C9.19175 10.2466 9.08464 11.2021 8.92398 12.1444C8.87042 14.3226 9.76064 16.0821 11.1672 17.5914C12.0008 18.4852 13.0244 19.0936 14.336 18.7829" fill="var(--fill-0, white)"/>
<path id="Vector_5" d="M11.7101 9.99431C12.5276 10.1043 13.2207 10.1507 13.8937 10.299C14.79 10.4967 15.2376 11.4118 15.0072 12.2986C14.8324 12.9736 14.7587 13.6747 14.6233 14.3608C14.5849 14.5575 14.4889 14.7442 14.4201 14.9359C14.1918 14.8501 13.9139 14.8219 13.7442 14.6695C12.8267 13.8483 12.1446 12.8626 11.9001 11.6267C11.8 11.1182 11.7778 10.5936 11.7111 9.99431M13.4521 16.0043C14.4171 16.6187 15.758 16.1062 15.7802 14.9581C15.7964 14.1398 16.142 13.3297 16.1733 12.5105C16.1965 11.884 16.0874 11.1777 15.8055 10.6299C15.2033 9.45657 14.0816 9.22554 12.8691 9.31634C12.6367 9.31634 12.4002 9.3456 12.1729 9.31028C11.4838 9.20334 11.1695 9.56049 11.1533 10.191C11.1341 10.9114 11.0947 11.6529 11.2321 12.3511C11.5222 13.8271 12.1112 15.1497 13.4531 16.0043" fill="var(--fill-0, white)"/>
</g>
</svg>
